<svg width="280" height="280" viewBox="0 0 280 280" fill="none" xmlns="http://www.w3.org/2000/svg">
<path d="M112.706 73.187H119.873C117.233 69.298 115.687 64.6087 115.687 59.5643C115.687 54.0751 117.537 49.022 120.616 44.9483C114.284 35.7367 94.8794 10.2682 74.822 11.7293C66.8091 12.3227 63.5623 21.7318 63.8964 30.7931C64.5264 47.8339 78.0465 73.187 112.706 73.187Z" fill="#5A5040"/>
<path d="M97.4094 83.8774H36.2805V137.405H97.4094V83.8774Z" fill="#5A5040"/>
<path d="M160.126 73.1869H167.294C201.953 73.1869 215.474 47.8338 216.103 30.793C216.437 21.7317 213.191 12.3226 205.178 11.7292C185.119 10.2387 165.713 35.7282 159.382 44.9463C162.462 49.0205 164.313 54.0741 164.313 59.5642C164.313 64.6086 162.767 69.2979 160.126 73.1869Z" fill="#5A5040"/>
<path d="M171.9 83.8774H108.1V137.405H171.9V83.8774Z" fill="#5A5040"/>
<path d="M56.0404 258.876C56.0404 264.091 60.2826 268.333 65.4974 268.333H115.687V148.096H56.0404V258.876Z" fill="#5A5040"/>
<path d="M140 73.1868C147.512 73.1868 153.623 67.0758 153.623 59.5641C153.623 52.0534 147.512 45.9424 140 45.9424C132.488 45.9424 126.377 52.0534 126.377 59.5641C126.377 67.0758 132.488 73.1868 140 73.1868Z" fill="#5A5040"/>
<path d="M153.623 148.096H126.377V268.333H153.623V148.096Z" fill="#5A5040"/>
<path d="M243.719 83.8774H182.591V137.405H243.719V83.8774Z" fill="#5A5040"/>
<path d="M164.313 268.333H214.503C219.717 268.333 223.96 264.091 223.96 258.876V148.096H164.313V268.333Z" fill="#5A5040"/>
</svg>
