<svg width="280" height="280" viewBox="0 0 280 280" fill="none" xmlns="http://www.w3.org/2000/svg">
<path d="M162.273 196.127C162.273 199.64 159.425 202.491 155.909 202.491H124.091C120.578 202.491 117.728 199.64 117.728 196.127V173.771L0 147.025V253.601C0 260.629 5.69882 266.328 12.7272 266.328H267.273C274.302 266.328 280 260.629 280 253.601V147.133L162.273 173.787V196.127Z" fill="#5A5040"/>
<path d="M267.273 75.4189H12.7272C5.69882 75.4189 0 81.1173 0 88.1461V130.716L117.727 157.459V145.219C117.727 141.706 120.578 138.855 124.091 138.855H155.909C159.425 138.855 162.272 141.706 162.272 145.219V157.475L280 130.821V88.1461C280 81.1173 274.301 75.4189 267.273 75.4189Z" fill="#5A5040"/>
<path d="M90.892 45.8788C90.892 36.3716 98.6268 28.6364 108.131 28.6364H171.866C181.373 28.6364 189.108 36.3711 189.108 45.8788V62.6884H204.072V45.8788C204.072 28.118 189.627 13.6724 171.866 13.6724H108.131C90.3732 13.6724 75.9244 28.118 75.9244 45.8788V62.6884H90.8916L90.892 45.8788Z" fill="#5A5040"/>
</svg>
