<svg width="202" height="250" viewBox="0 0 202 250" fill="none" xmlns="http://www.w3.org/2000/svg">
<path d="M74.242 59.7627H81.2043C78.6393 55.9848 77.1374 51.4295 77.1374 46.5292C77.1374 41.1969 78.9346 36.2882 81.9264 32.3308C75.7749 23.3825 56.9246 -1.35844 37.4404 0.0609446C29.6564 0.637358 26.5023 9.77769 26.8269 18.5801C27.4389 35.134 40.5727 59.7627 74.242 59.7627Z" fill="#5A5040"/>
<path d="M59.3824 70.1478H0V122.146H59.3824V70.1478Z" fill="#5A5040"/>
<path d="M120.307 59.7626H127.27C160.939 59.7626 174.073 35.1339 174.685 18.58C175.01 9.77766 171.856 0.637324 164.072 0.0609109C144.586 -1.38704 125.735 23.3743 119.584 32.329C122.577 36.2868 124.375 41.1959 124.375 46.5292C124.375 51.4295 122.873 55.9848 120.307 59.7626Z" fill="#5A5040"/>
<path d="M131.744 70.1478H69.7675V122.146H131.744V70.1478Z" fill="#5A5040"/>
<path d="M19.1953 240.146C19.1953 245.212 23.3163 249.333 28.3821 249.333H77.1374V132.531H19.1953V240.146Z" fill="#5A5040"/>
<path d="M100.756 59.7627C108.053 59.7627 113.99 53.8263 113.99 46.5292C113.99 39.233 108.053 33.2966 100.756 33.2966C93.459 33.2966 87.5226 39.233 87.5226 46.5292C87.5226 53.8263 93.459 59.7627 100.756 59.7627Z" fill="#5A5040"/>
<path d="M113.99 132.531H87.5226V249.333H113.99V132.531Z" fill="#5A5040"/>
<path d="M201.512 70.1478H142.13V122.146H201.512V70.1478Z" fill="#5A5040"/>
<path d="M124.375 249.333H173.13C178.196 249.333 182.317 245.212 182.317 240.146V132.531H124.375V249.333Z" fill="#5A5040"/>
</svg>
