<svg width="280" height="280" viewBox="0 0 280 280" fill="none" xmlns="http://www.w3.org/2000/svg">
<path d="M175.653 28.1156C174.676 19.4907 168.817 13.5731 163.535 12.1848C152.528 9.29638 145.542 19.2809 143.664 22.4111C142.893 23.6958 141.543 24.4686 140.053 24.4836C140.039 24.4836 140.025 24.4836 140.011 24.4836C138.543 24.4836 137.203 23.7413 136.421 22.4937C134.725 19.7863 128.952 11.8012 119.97 11.8012C118.83 11.8012 117.64 11.9293 116.399 12.2142C111.264 13.389 105.49 19.0194 104.39 27.5087C103.452 34.7442 105.104 53.4416 140.026 72.225C174.548 53.6577 176.461 35.2391 175.653 28.1156Z" fill="#5A5040"/>
<path d="M72.6817 143.048C64.3872 137.539 57.6485 135.842 52.5632 135.775C52.4293 135.785 52.2972 135.783 52.164 135.779C45.8673 135.803 42.2 138.314 41.3595 138.965L39.2509 146.301C34.2477 163.706 42.7163 181.839 58.4526 189.533C58.629 189.605 58.7984 189.685 58.9582 189.781C60.7096 190.605 62.5452 191.304 64.4637 191.855C66.3628 192.401 68.2817 192.784 70.2053 193.021C70.427 193.024 70.6489 193.05 70.8724 193.093C78.3057 193.872 85.7876 192.377 92.4628 188.683C101.067 183.921 107.302 176.093 110.018 166.641L115.219 148.548C110.887 150.646 105.612 152.104 99.5687 152.104C91.7481 152.104 82.6511 149.67 72.6817 143.048Z" fill="#5A5040"/>
<path d="M118.426 110.557C110.438 109.788 100.179 107.678 89.5388 104.62C78.8988 101.562 69.0867 97.9005 61.9084 94.3119C59.2377 92.9763 57.0521 91.7156 55.2916 90.4976L44.121 129.358C46.2137 128.733 48.6896 128.267 51.5428 128.196C56.6496 126.086 82.372 117.186 119.529 133.555L126.058 110.842C125.529 110.866 124.985 110.882 124.407 110.882C122.649 110.882 120.661 110.773 118.426 110.557Z" fill="#5A5040"/>
<path d="M115.093 139.903C95.2312 131.454 79.0584 130.771 68.3412 131.97C71.0369 133.193 73.8791 134.751 76.8721 136.739C95.5924 149.172 108.739 144.187 115.093 139.903Z" fill="#5A5040"/>
<path d="M125.938 103.289C121.568 100.238 110.887 95.0514 93.709 90.1127C76.5305 85.1763 64.7206 83.8944 59.4027 84.1643C63.7726 87.2156 74.4532 92.4022 91.6309 97.3409C108.809 102.277 120.618 103.564 125.938 103.289Z" fill="#5A5040"/>
<path d="M59.4743 198.182L54.2766 216.265C49.4032 233.219 37.733 247.457 22.1254 255.578L66.5009 268.333C57.5881 253.165 55.261 234.902 60.134 217.947L65.3291 199.874C64.34 199.661 63.3535 199.416 62.3716 199.134C61.3888 198.852 60.4266 198.526 59.4743 198.182Z" fill="#5A5040"/>
<path d="M164.91 139.904C171.265 144.187 184.411 149.171 203.128 136.739C206.091 134.771 208.905 133.227 211.576 132.01C200.825 130.829 184.648 131.521 164.91 139.904Z" fill="#5A5040"/>
<path d="M228.458 128.196C231.311 128.267 233.787 128.733 235.879 129.358L224.709 90.4976C222.948 91.7156 220.762 92.9763 218.092 94.3119C210.913 97.9008 201.101 101.562 190.461 104.62C179.821 107.678 169.562 109.788 161.574 110.557C159.339 110.773 157.351 110.882 155.593 110.882C155.016 110.882 154.472 110.866 153.943 110.842L160.472 133.555C197.629 117.186 223.352 126.088 228.458 128.196Z" fill="#5A5040"/>
<path d="M221.042 189.781C221.202 189.685 221.371 189.605 221.548 189.533C237.284 181.839 245.752 163.707 240.749 146.301L238.641 138.966C237.771 138.296 234.104 135.807 227.838 135.782C227.715 135.785 227.593 135.79 227.469 135.781C222.379 135.84 215.633 137.527 207.318 143.048C197.351 149.669 188.251 152.104 180.431 152.104C174.388 152.104 169.113 150.646 164.781 148.549L169.982 166.641C174.986 184.049 191.794 194.914 209.216 193.077C209.401 193.045 209.585 193.024 209.77 193.02C211.691 192.788 213.618 192.406 215.537 191.855C217.455 191.304 219.29 190.605 221.042 189.781Z" fill="#5A5040"/>
<path d="M188.369 97.3412C205.547 92.4024 216.227 87.2159 220.597 84.1646C215.28 83.8958 203.471 85.1756 186.291 90.113C169.113 95.0517 158.432 100.238 154.062 103.29C159.39 103.563 171.191 102.278 188.369 97.3412Z" fill="#5A5040"/>
<path d="M225.723 216.264L220.526 198.18C219.576 198.525 218.614 198.851 217.629 199.134C216.645 199.417 215.658 199.66 214.671 199.873L219.866 217.947C224.739 234.901 222.412 253.163 213.499 268.333L257.875 255.578C242.266 247.456 230.597 233.217 225.723 216.264Z" fill="#5A5040"/>
</svg>
